<svg width="122.88" height="107.68" xmlns="http://www.w3.org/2000/svg" version="1.1" xml:space="preserve">
 <g>
  <title>Layer 1</title>
  <g id="svg_1">
   <path fill="#ffffff" d="m61.43,13.53c5.33,-6.02 11.37,-9.84 17.53,-11.84c6.48,-2.1 13.07,-2.15 19.09,-0.6c6.05,1.55 11.52,4.72 15.74,9.03c5.58,5.7 9.09,13.36 9.09,22.02c0,13.7 -6.6,26.75 -17.42,39.37c-10.14,11.83 -24.05,23.35 -39.61,34.73c-2.58,1.89 -5.98,1.88 -8.5,0.22l0,0.01l-0.03,-0.02l0,0.01l-0.02,-0.01l-0.21,-0.15c-4.46,-2.92 -8.75,-5.91 -12.8,-8.94c-4.05,-3.03 -8.01,-6.22 -11.83,-9.56c-19.88,-17.38 -32.46,-36.4 -32.46,-55.67c0,-8.8 3.44,-16.44 8.93,-22.08c4.25,-4.37 9.73,-7.51 15.79,-9.03l0,0c5.99,-1.5 12.57,-1.4 19.05,0.69c6.22,2 12.32,5.83 17.66,11.82l0,0l0,0zm22.08,2.34c-5.49,1.78 -11,6.15 -15.51,13.91c-0.63,1.19 -1.6,2.21 -2.85,2.93c-3.56,2.05 -8.11,0.82 -10.15,-2.74c-4.5,-7.82 -10.14,-12.27 -15.78,-14.08c-3.71,-1.19 -7.46,-1.25 -10.88,-0.4l0,0l-0.02,0c-3.35,0.83 -6.37,2.56 -8.7,4.95c-2.87,2.95 -4.67,7 -4.67,11.7c0,14.53 10.59,29.82 27.3,44.43c3.28,2.87 6.95,5.82 10.95,8.81c2.61,1.96 5.35,3.92 8.04,5.74c13.03,-9.76 24.53,-19.53 32.9,-29.3c8.58,-10 13.8,-19.92 13.8,-29.68c0,-4.55 -1.84,-8.58 -4.76,-11.57c-2.38,-2.42 -5.43,-4.2 -8.8,-5.06c-3.4,-0.88 -7.15,-0.84 -10.87,0.36l0,0l0,0z" id="svg_2"/>
  </g>
 </g>

</svg>